<?xml version="1.0" ?><svg width="128px" height="128px" viewBox="0 0 128 128" xmlns="http://www.w3.org/2000/svg"><defs><style>.cls-1{fill:#40c4ff;}.cls-2{fill:#ff4081;}.cls-3{fill:#ff6096;}.cls-4{fill:#fff;}.cls-5{fill:#80d8ff;}.cls-6,.cls-7{fill:none;stroke:#000;stroke-linecap:round;stroke-linejoin:round;stroke-width:4px;}.cls-6{stroke-dasharray:32 8 0.25 8 1000;}</style></defs><g data-name="07 mug" id="_07_mug"><path class="cls-1" d="M112.18,55.14A20.7,20.7,0,0,0,98,53.58,74.8,74.8,0,0,0,84.53,36.36c-22-21-51.78-25.38-66.62-9.84C8.46,36.4,7.36,52,13.46,67.41c3.43-1.57,6.32-4.82,8.79-9.39-3.07-7.86-4.1-15.51-2.87-22a21,21,0,0,1,2.83-3.21C35.34,20.68,61.43,27.54,81.13,48l7.14,9.72a44.13,44.13,0,0,0-15.12,17c-8.93,17.32-6,36.63,6.67,43.13s30.09-2.28,39-19.59S124.8,61.64,112.18,55.14Z"/><path class="cls-1" d="M69.29,104.35c-2.53-8.55-1.4-19.43,3.86-29.62,8.94-17.31,26.41-26.08,39-19.59,5.31,2.74,13.14,21-1.63,34.84C92,107.37,70.32,107.82,69.29,104.35Z"/><path class="cls-2" d="M92,54.71l9.45-1.53a16,16,0,0,1,13.6,4.19,22.8,22.8,0,0,1,1.89,30.7,58.51,58.51,0,0,1-28.8,20.21l2.62-13a2,2,0,0,0,2.92,2,50.56,50.56,0,0,0,17-14.23,14.77,14.77,0,0,0-1.14-20,7.6,7.6,0,0,0-1.77-1.26,5.91,5.91,0,0,0-8.33,3.84c-.12.45-.25.9-.38,1.35a12.65,12.65,0,0,1-7,7.88Z"/><path class="cls-3" d="M90,48a2,2,0,0,1,2,2V78a119.59,119.59,0,0,1-7.12,40.8,8,8,0,0,1-7.5,5.2H42.62a8,8,0,0,1-7.5-5.2A119.59,119.59,0,0,1,28,78V50a2,2,0,0,1,2-2Z"/><path class="cls-4" d="M92.08,80.07A51.5,51.5,0,0,0,17.35,66.5a51.13,51.13,0,0,0-.29,8.42,51.7,51.7,0,0,0,48.88,49C88.86,124.74,104.28,99.5,92.08,80.07Z"/><path class="cls-5" d="M89,92.33A48.57,48.57,0,0,0,37,63.59c.2-.57.39-1.15.56-1.74a2,2,0,0,0-2-2.53,13.77,13.77,0,0,1-8.06-2.1,4,4,0,0,0-5.08.63l-.15.17c-3-7.77-4.08-15.34-2.9-21.81a1.66,1.66,0,0,1,0-.22A22,22,0,0,1,25,24.65a24.81,24.81,0,0,1,18.3-7.38c-10-.38-19.08,2.62-25.41,9.25C8.46,36.4,7.36,52,13.46,67.41h0l-.19.21a3.93,3.93,0,0,0-.78,4.24A26.74,26.74,0,0,1,14.57,80a4,4,0,0,0,3.68,3.7,51.73,51.73,0,0,0,47.69,40.2,28.89,28.89,0,0,0,16.49-4.4A23.46,23.46,0,0,0,89,92.33Z"/><path class="cls-6" d="M31.46,58.92A51.49,51.49,0,0,1,92.08,80.07c12.2,19.43-3.22,44.67-26.14,43.87a51.73,51.73,0,0,1-47.68-40.2"/><path class="cls-7" d="M79.91,20.55a6.41,6.41,0,0,1,6.41-6.41,8,8,0,0,1,8,8,10,10,0,0,1-10,10A12.51,12.51,0,0,1,71.8,19.64,15.64,15.64,0,0,1,87.44,4,19.56,19.56,0,0,1,107,23.56,24.44,24.44,0,0,1,82.56,48M96.35,95.88a50.64,50.64,0,0,0,14.29-12.75,14.77,14.77,0,0,0-1.14-20,7.6,7.6,0,0,0-1.77-1.26,5.91,5.91,0,0,0-8.33,3.84c-.12.45-.25.9-.38,1.35a12.65,12.65,0,0,1-7,7.88m2,31.14a58.5,58.5,0,0,0,23-18,22.8,22.8,0,0,0-1.89-30.7,16,16,0,0,0-13.6-4.19L92,54.71m-60,54c.91,3.43,2,6.81,3.16,10.11a8,8,0,0,0,7.5,5.2H77.38M92,79.92c0-.64,0-1.28,0-1.92V50a2,2,0,0,0-2-2H30a2,2,0,0,0-2,2v7.54m7.54,1.78a13.77,13.77,0,0,1-8.06-2.1,4,4,0,0,0-5.08.63l-9.12,9.76a3.93,3.93,0,0,0-.78,4.24A26.74,26.74,0,0,1,14.57,80a4,4,0,0,0,6,3.18A36.52,36.52,0,0,0,37.51,61.85,2,2,0,0,0,35.54,59.32Zm46.72,60.31A23.48,23.48,0,0,0,89,92.29,48.52,48.52,0,0,0,36.94,63.6M72.24,40c-18.08-14-38.8-17.57-50-7.22A21,21,0,0,0,19.38,36M43.52,17.27c-7.46-.05-14,2.63-18.5,7.38-7.35,7.68-7.9,20.22-2.77,33.37M83,119.15c12.23,3.7,27.62-5,35.82-20.88,8.93-17.32,6-36.63-6.67-43.13l-.69-.34m-27-18.44c-22-21-51.78-25.38-66.62-9.84C8.46,36.4,7.36,52,13.46,67.41"/></g></svg>